<svg version="1.1" xmlns="http://www.w3.org/2000/svg" 
xmlns:xlink="http://www.w3.org/1999/xlink"
width="388" height="18" viewBox="0 0 388 18" >
 <g>
  <rect x="0.5" y="0.5" width="8" height="8" stroke="black" />
  <rect x="9.5" y="9.5" width="8" height="8" stroke="black" />
  <rect x="18.5" y="0.5" width="8" height="8" stroke="black" />
  <rect x="27.5" y="9.5" width="8" height="8" stroke="black" />
  <rect x="36.5" y="0.5" width="8" height="8" stroke="black" />
  <rect x="45.5" y="9.5" width="8" height="8" stroke="black" />
  <rect x="54.5" y="0.5" width="8" height="8" stroke="black" />
  <rect x="63.5" y="9.5" width="8" height="8" stroke="black" />
  <rect x="72.5" y="0.5" width="8" height="8" stroke="black" />
  <rect x="81.5" y="9.5" width="8" height="8" stroke="black" />
  <rect x="90.5" y="0.5" width="8" height="8" stroke="black" />
  <rect x="99.5" y="9.5" width="8" height="8" stroke="black" />
  <rect x="108.5" y="0.5" width="8" height="8" stroke="black" />
  <rect x="117.5" y="9.5" width="8" height="8" stroke="black" />
  <rect x="126.5" y="0.5" width="8" height="8" stroke="black" />
  <rect x="135.5" y="9.5" width="8" height="8" stroke="black" />
  <rect x="144.5" y="0.5" width="8" height="8" stroke="black" />
  <rect x="153.5" y="9.5" width="8" height="8" stroke="black" />
  <rect x="162.5" y="0.5" width="8" height="8" stroke="black" />
  <rect x="171.5" y="9.5" width="8" height="8" stroke="black" />
  <rect x="180.5" y="0.5" width="8" height="8" stroke="black" />
  <rect x="189.5" y="9.5" width="8" height="8" stroke="black" />
  <rect x="198.5" y="0.5" width="8" height="8" stroke="black" />
  <rect x="207.5" y="9.5" width="8" height="8" stroke="black" />
  <rect x="216.5" y="0.5" width="8" height="8" stroke="black" />
  <rect x="225.5" y="9.5" width="8" height="8" stroke="black" />
  <rect x="234.5" y="0.5" width="8" height="8" stroke="black" />
  <rect x="243.5" y="9.5" width="8" height="8" stroke="black" />
  <rect x="252.5" y="0.5" width="8" height="8" stroke="black" />
  <rect x="261.5" y="9.5" width="8" height="8" stroke="black" />
  <rect x="270.5" y="0.5" width="8" height="8" stroke="black" />
  <rect x="279.5" y="9.5" width="8" height="8" stroke="black" />
  <rect x="288.5" y="0.5" width="8" height="8" stroke="black" />
  <rect x="297.5" y="9.5" width="8" height="8" stroke="black" />
  <rect x="306.5" y="0.5" width="8" height="8" stroke="black" />
  <rect x="315.5" y="9.5" width="8" height="8" stroke="black" />
  <rect x="324.5" y="0.5" width="8" height="8" stroke="black" />
  <rect x="333.5" y="9.5" width="8" height="8" stroke="black" />
  <rect x="342.5" y="0.5" width="8" height="8" stroke="black" />
  <rect x="351.5" y="9.5" width="8" height="8" stroke="black" />
  <rect x="360.5" y="0.5" width="8" height="8" stroke="black" />
  <rect x="369.5" y="9.5" width="8" height="8" stroke="black" />
  <rect x="378.5" y="0.5" width="8" height="8" stroke="black" />
  <rect x="0.5" y="0.5" width="387" height="17" stroke="black" fill="none" rx="5px"/>
 </g>
</svg>